<svg width="414" height="412" viewBox="0 0 414 412" fill="none" xmlns="http://www.w3.org/2000/svg">
<path d="M394.425 176.926C394.425 255.075 309.807 318.426 205.425 318.426C101.044 318.426 16.4254 255.075 16.4254 176.926C16.4254 98.7781 101.044 35.4263 205.425 35.4263C309.807 35.4263 394.425 98.7781 394.425 176.926Z" fill="#A6A6A6"/>
<path d="M51.4254 280.426H366.425V318.426H51.4254V280.426Z" fill="#04ABBA"/>
<path d="M194.05 410.691C180.459 409.823 167.973 407.83 154.749 404.417C110.308 392.948 69.7602 366.06 41.9542 329.62C17.2667 297.267 3.77264 260.878 0.448651 217.693C-1.32481 194.661 2.23371 166.149 9.80737 142.7C26.9942 89.4845 64.7059 46.0144 115.322 21.0755C135.659 11.0551 155.767 4.80939 178.304 1.51282C192.104 -0.505653 221.703 -0.503998 235.486 1.51613C333.701 15.9094 407.145 95.1387 413.137 193.162C418.8 285.795 360.758 371.251 272.462 400.283C246.299 408.884 220.136 412.358 194.05 410.691ZM235.071 394.59C288.517 386.378 336.376 356.019 366.129 311.458C374.291 299.231 384.125 279.1 388.61 265.429C395.956 243.04 398.851 222.758 398.095 198.975C396.111 136.562 363.766 79.2134 311.314 45.1111C293.939 33.8151 267.149 22.5736 248.238 18.6434C221.415 13.0694 190.441 13.0818 165.124 18.6773C145.691 22.9724 119.586 33.9871 102.476 45.1111C57.506 74.3492 26.9486 121.094 17.8642 174.549C15.6755 187.424 14.9106 210.25 16.2266 223.379C22.1743 282.711 55.3604 336.312 105.478 367.532C130.833 383.327 159.26 392.779 191.564 396.155C198.554 396.885 226.728 395.872 235.071 394.59Z" fill="#717171"/>
<path d="M184.899 399.364C117.524 391.257 60.0658 350.197 30.909 289.323C19.9301 266.401 13.9302 243.032 12.441 217.394C7.90625 139.313 50.3599 66.2795 120.181 32.0448C149.183 17.8253 174.088 12.0288 206.463 11.9643C239.009 11.899 264.306 17.7327 293.591 32.0581C331.688 50.6934 362.726 81.6687 381.405 119.693C396.789 151.011 403.213 182.674 401.271 217.613C397.424 286.816 355.797 349.568 293.566 379.97C274.582 389.246 257.772 394.69 237.33 398.186C227.901 399.797 194.703 400.543 184.899 399.364ZM137.128 303.713C140.995 302.101 143.454 297.949 143.458 293.021C143.467 282.167 129.628 278.221 123.977 287.466C120.574 293.032 122.848 301.241 128.467 303.677C131.975 305.198 133.548 305.205 137.128 303.713ZM128.181 300.5C126.798 298.301 126.517 296.691 126.76 292.373C127.024 287.719 127.386 286.712 129.426 284.962C132.184 282.595 134.457 282.912 137.33 286.064C138.86 287.743 139.232 289.145 139.232 293.222C139.232 300.712 137.597 303.205 132.667 303.228C130.462 303.237 129.558 302.688 128.181 300.5ZM195.133 303.019C198.962 300.475 201.312 295.642 200.589 291.799C199.834 287.783 195.611 283.179 192.077 282.518C179.896 280.239 173.993 297.525 184.951 303.387C188.778 305.434 191.654 305.33 195.133 303.019ZM186.157 301.845C182.924 298.62 182.259 292.02 184.689 287.286C187.172 282.447 191.734 282.275 194.776 286.906C196.76 289.926 196.739 298.03 194.739 301.075C193.046 303.652 188.388 304.07 186.157 301.845ZM223.609 303.238C226.927 301.219 227.182 301.19 227.182 302.819C227.182 303.515 227.562 304.084 228.028 304.084C228.497 304.084 228.873 301.835 228.873 299.023C228.873 296.211 229.25 293.962 229.719 293.962C230.184 293.962 230.565 293.583 230.565 293.119C230.565 292.655 228.662 292.275 226.337 292.275C224.01 292.275 222.108 292.655 222.108 293.119C222.108 293.583 222.679 293.962 223.376 293.962C224.952 293.962 225.154 299.865 223.63 301.385C221.874 303.137 217.952 302.561 215.79 300.236C212.052 296.211 212.301 286.759 216.201 284.678C220.13 282.58 224.083 284.009 226.921 288.553C227.801 289.963 227.934 289.725 227.978 286.671C228.021 283.592 227.801 283.176 226.125 283.182C225.079 283.184 222.873 282.918 221.223 282.588C216.508 281.645 212.265 283.832 210.26 288.237C208.282 292.585 208.184 294.764 209.795 298.61C211.153 301.851 215.498 304.921 218.726 304.921C219.888 304.921 222.085 304.164 223.609 303.238ZM76.4421 303.173C75.3482 302.537 74.962 301.224 74.962 298.138V293.962H77.9496C79.5921 293.962 82.2556 293.413 83.8691 292.74C86.5251 291.633 86.8011 291.198 86.8011 288.131C86.8011 283.822 85.5307 283.107 76.6609 282.424C71.8237 282.052 69.8878 282.18 69.8878 282.872C69.8878 283.405 70.269 283.841 70.7339 283.841C71.2486 283.841 71.5792 287.615 71.5792 293.479C71.5792 301.949 71.4002 303.163 70.0999 303.503C69.2853 303.715 70.7124 303.921 73.2706 303.961C76.8109 304.015 77.5684 303.828 76.4421 303.173ZM74.962 283.841H77.8617C81.194 283.841 83.4191 285.655 83.4191 288.371C83.4191 291.092 81.8305 292.275 78.1758 292.275H74.962V283.841ZM101.389 303.526C100.726 303.258 100.332 301.397 100.332 298.531V293.962H108.789V298.531C108.789 301.397 108.395 303.258 107.732 303.526C107.15 303.76 108.577 303.951 110.903 303.951C113.229 303.951 114.656 303.759 114.074 303.526C112.751 302.993 112.545 283.841 113.863 283.841C114.328 283.841 114.708 283.461 114.708 282.997C114.708 282.533 112.996 282.154 110.903 282.154C108.81 282.154 107.097 282.533 107.097 282.997C107.097 283.461 107.478 283.841 107.943 283.841C108.408 283.841 108.789 285.738 108.789 288.058V292.275H100.332V288.058C100.332 285.738 100.713 283.841 101.178 283.841C101.643 283.841 102.024 283.461 102.024 282.997C102.024 282.533 100.311 282.154 98.2184 282.154C96.125 282.154 94.4129 282.533 94.4129 282.997C94.4129 283.461 94.7933 283.841 95.2582 283.841C96.5759 283.841 96.3703 302.993 95.0469 303.526C94.4651 303.76 95.8922 303.951 98.2184 303.951C100.544 303.951 101.971 303.759 101.389 303.526ZM164.814 303.526C164.055 303.22 163.757 300.385 163.757 293.471V283.841H165.838C167.888 283.841 168.509 284.298 170.987 287.636C172.173 289.233 172.213 289.188 171.733 286.792C171.455 285.401 171.08 283.788 170.901 283.208C170.667 282.448 167.992 282.154 161.345 282.154C152.488 282.154 152.094 282.23 151.605 284.052C151.324 285.095 151.091 286.709 151.087 287.636C151.08 288.964 151.435 288.739 152.754 286.582C154.048 284.465 155.01 283.841 156.98 283.841H159.529V293.471C159.529 300.385 159.23 303.22 158.472 303.526C157.89 303.76 159.317 303.951 161.643 303.951C163.968 303.951 165.396 303.759 164.814 303.526ZM244.307 303.526C243.644 303.258 243.25 301.397 243.25 298.531C243.25 292.559 244.406 292.663 248.956 299.045C252.264 303.686 252.798 304.082 255.721 304.058C258.188 304.039 258.58 303.85 257.485 303.212C256.709 302.76 254.693 300.514 253.004 298.219C250.827 295.262 249.514 294.18 248.494 294.505C247.268 294.897 247.243 294.83 248.323 294.055C249.021 293.554 250.249 293.139 251.052 293.131C253.172 293.112 255.383 289.34 254.749 286.823C254.46 285.673 253.418 284.303 252.435 283.778C249.843 282.395 237.33 281.648 237.33 282.876C237.33 283.406 237.711 283.841 238.176 283.841C239.493 283.841 239.288 302.993 237.964 303.526C237.383 303.76 238.81 303.951 241.135 303.951C243.461 303.951 244.888 303.759 244.307 303.526ZM243.25 288.058C243.25 283.849 243.256 283.841 246.04 283.841C249.402 283.841 250.861 285.117 250.861 288.058C250.861 290.999 249.402 292.275 246.04 292.275C243.255 292.275 243.25 292.266 243.25 288.058ZM268.821 303.383C267.998 302.861 267.968 302.093 268.693 300.021C269.572 297.506 269.888 297.336 273.694 297.336C277.49 297.336 277.818 297.51 278.685 299.993C279.844 303.307 279.884 303.046 278.133 303.503C277.319 303.715 278.884 303.933 281.61 303.986C286.421 304.082 286.516 304.041 284.835 302.608C283.884 301.796 281.329 296.861 279.159 291.642C275.442 282.705 275.074 282.154 272.812 282.154C269.926 282.154 268.805 283.472 271.166 284.087C272.091 284.329 272.848 285.126 272.848 285.86C272.848 288.092 266.878 301.903 265.427 303.029C264.265 303.931 264.49 304.082 266.978 304.071C268.765 304.065 269.476 303.797 268.821 303.383ZM271.803 292.697C272.578 290.609 273.435 288.902 273.706 288.902C273.977 288.902 274.75 290.325 275.423 292.064C276.095 293.804 276.774 295.512 276.932 295.86C277.088 296.208 275.682 296.492 273.805 296.492H270.392L271.803 292.697ZM300.121 303.526C299.458 303.258 299.063 301.397 299.063 298.531C299.063 294.007 299.089 293.962 301.628 293.962C305.336 293.962 309.805 291.867 310.456 289.822C311.227 287.399 310.285 284.865 308.201 283.752C305.644 282.387 293.144 281.66 293.144 282.876C293.144 283.406 293.524 283.841 293.99 283.841C295.308 283.841 295.102 302.993 293.778 303.526C293.197 303.76 294.624 303.951 296.949 303.951C299.275 303.951 300.702 303.759 300.121 303.526ZM299.063 288.058C299.063 283.957 299.132 283.841 301.54 283.841C304.488 283.841 306.674 285.77 306.674 288.371C306.674 291.007 305.108 292.275 301.854 292.275C299.069 292.275 299.063 292.266 299.063 288.058ZM325.068 303.173C323.974 302.537 323.588 301.224 323.588 298.138V293.962H332.045V298.531C332.045 301.397 331.65 303.258 330.987 303.526C330.406 303.76 331.833 303.951 334.159 303.951C336.484 303.951 337.911 303.759 337.33 303.526C336.007 302.993 335.8 283.841 337.118 283.841C337.584 283.841 337.964 283.461 337.964 282.997C337.964 282.533 336.251 282.154 334.159 282.154C332.065 282.154 330.353 282.533 330.353 282.997C330.353 283.461 330.734 283.841 331.199 283.841C331.664 283.841 332.045 285.738 332.045 288.058V292.275H323.588V288.453C323.588 285.833 323.987 284.478 324.856 284.145C325.554 283.879 326.125 283.321 326.125 282.907C326.125 281.868 318.739 281.952 318.091 282.997C317.804 283.461 318.161 283.841 318.886 283.841C320.004 283.841 320.205 285.311 320.205 293.479C320.205 301.949 320.026 303.163 318.726 303.503C317.911 303.715 319.338 303.921 321.896 303.961C325.436 304.015 326.194 303.828 325.068 303.173ZM357.626 303.526C356.973 303.263 356.568 301.437 356.566 298.742C356.564 293.741 360.335 283.841 362.242 283.841C362.898 283.841 363.199 283.461 362.911 282.997C362.257 281.94 358.26 281.879 358.26 282.926C358.26 283.352 358.598 283.827 359.01 283.98C359.423 284.135 358.816 286.35 357.662 288.901L355.564 293.54L353.318 288.983C351.696 285.692 351.365 284.325 352.13 284.063C354.616 283.209 352.864 282.153 348.958 282.153C346.633 282.153 344.73 282.533 344.73 282.997C344.73 283.461 345.105 283.841 345.564 283.841C346.024 283.841 347.737 286.488 349.37 289.724C352.483 295.888 353.422 302.665 351.283 303.526C350.702 303.759 352.13 303.951 354.455 303.951C356.78 303.951 358.207 303.759 357.626 303.526ZM199.098 277.173C205.76 273.762 209.147 267.673 209.699 258.114C209.781 256.722 210.087 255.204 210.382 254.74C210.678 254.276 211.189 252.27 211.519 250.283C211.849 248.296 212.636 245.633 213.269 244.368C213.903 243.102 214.801 239.414 215.266 236.172C216.08 230.49 216.536 228.079 218.691 218.048C219.239 215.497 219.837 212.27 220.021 210.878C220.204 209.487 220.763 205.691 221.262 202.444C221.76 199.196 222.371 195.046 222.619 193.221C222.867 191.395 223.609 188.358 224.268 186.472C224.927 184.586 225.471 181.271 225.478 179.105C225.485 176.938 226.036 172.953 226.702 170.248C227.368 167.543 228.171 161.724 228.487 157.317C228.802 152.909 229.42 148.86 229.86 148.317C230.905 147.027 232.163 133.715 232.197 123.577C232.246 109.036 232.175 108.057 230.858 105.289C229.531 102.499 221.654 96.5856 219.266 96.5856C218.558 96.5856 217.745 96.2059 217.457 95.7418C217.169 95.2785 216.196 94.8988 215.293 94.8988C213.914 94.8988 213.651 95.4986 213.651 98.6446C213.651 100.704 213.271 102.625 212.805 102.912C212.34 103.199 211.96 104.175 211.96 105.081C211.96 105.988 211.622 107.389 211.208 108.195C209.852 110.841 205.194 125.921 205.194 127.671C205.194 128.612 204.814 129.617 204.349 129.904C203.884 130.19 203.504 131.329 203.504 132.434C203.504 133.539 203.123 134.678 202.658 134.965C202.193 135.251 201.812 136.959 201.812 138.76C201.812 140.561 201.431 142.269 200.966 142.556C200.501 142.843 200.121 144.787 200.121 146.879C200.121 148.969 199.691 151.482 199.165 152.461C198.64 153.44 197.865 156.547 197.444 159.364C194.633 178.162 195.601 176.759 185.865 176.149C181.38 175.869 177.622 175.572 177.514 175.489C177.405 175.407 177.689 172.708 178.147 169.491C178.955 163.798 179.181 161.768 180.232 150.756C180.509 147.844 180.768 140.518 180.806 134.476C180.883 122.353 181.276 123.331 174.556 118.906C166.762 113.774 163.836 118.406 159.886 142.134C159.615 143.758 159.07 145.846 158.673 146.773C157.902 148.58 157.154 152.305 156.473 157.739C156.24 159.594 155.715 161.872 155.305 162.8C154.895 163.727 154.373 165.815 154.144 167.439C153.57 171.528 152.758 175.143 151.967 177.138C150.879 179.881 149.381 186.703 149.381 188.91C149.381 190.036 149.001 191.192 148.535 191.478C148.07 191.765 147.69 193.593 147.69 195.541C147.69 197.488 147.297 200.406 146.818 202.028C146.338 203.648 145.183 211.996 144.25 220.579C141.986 241.398 142.721 248.569 147.569 252.945C152.505 257.4 166.239 248.374 166.324 240.619C166.356 237.694 169.066 221.86 169.898 219.735C170.17 219.039 170.644 215.623 170.953 212.143C171.26 208.664 171.808 205.438 172.169 204.974C172.709 204.282 173.772 198.191 174.11 193.86C174.197 192.744 182.71 191.056 188.248 191.056H191.882L191.38 195.063C191.105 197.267 190.626 202.486 190.316 206.661C190.006 210.836 189.401 214.694 188.974 215.234C188.546 215.773 188.022 220.407 187.809 225.53C187.596 230.653 187.115 235.715 186.74 236.779C186.364 237.843 186.082 245.926 186.112 254.74C186.169 271.158 186.521 273.149 190.182 277.725C191.415 279.267 195.503 279.014 199.098 277.173ZM295.005 255.042C297.191 254.562 299.426 253.634 299.971 252.979C300.516 252.323 301.72 251.787 302.646 251.787C304.343 251.787 310.887 248.589 311.839 247.295C312.121 246.911 313.313 245.962 314.489 245.186C327.759 236.424 331.3 233.635 335.428 228.7C337.986 225.641 340.549 223.132 341.124 223.123C341.699 223.117 342.726 221.781 343.406 220.157C344.087 218.533 345.012 217.204 345.463 217.204C345.914 217.204 347.136 215.782 348.178 214.042C349.22 212.302 350.695 210.309 351.457 209.614C354.176 207.125 358.807 200.705 359.973 197.805C360.625 196.181 362.029 193.566 363.092 191.993C364.156 190.421 365.028 187.953 365.031 186.51C365.033 185.068 365.568 182.87 366.218 181.627C366.868 180.384 367.177 179.145 366.905 178.873C366.633 178.601 366.318 175.633 366.206 172.276C366.093 168.92 365.432 164.834 364.734 163.196C363.506 160.312 354.733 151.371 352.849 151.084C352.337 151.007 351.537 150.706 351.072 150.417C350.607 150.127 348.414 149.619 346.199 149.288C343.984 148.958 341.964 148.351 341.709 147.941C341.455 147.531 340.491 147.195 339.566 147.195C337.933 147.195 337.928 147.137 339.405 145.112C340.241 143.966 342.105 142.627 343.548 142.135C345.342 141.524 346.681 140.184 347.777 137.901C348.659 136.065 349.731 134.558 350.16 134.552C351.544 134.536 354.032 131.793 354.032 130.285C354.032 129.478 354.602 128.6 355.3 128.334C355.998 128.066 356.569 127.136 356.569 126.265C356.569 125.394 357.295 124.027 358.183 123.225C360.537 121.1 362.65 113.98 362.034 110.252C361.424 106.562 358.576 100.495 356.658 98.8001C354.434 96.8346 349.017 94.0551 347.41 94.0551C346.587 94.0551 345.48 93.6224 344.95 93.0938C343.436 91.5841 316.706 91.8265 310.903 93.4024C305.245 94.9394 292.814 100.027 288.851 102.428C287.259 103.393 285 104.655 283.832 105.234C282.664 105.813 279.38 107.709 276.533 109.448C273.687 111.188 271.107 112.612 270.801 112.612C270.098 112.612 265.655 115.707 262.098 118.674C260.603 119.921 257.654 121.702 255.543 122.633C251.576 124.383 250.782 125.979 252.975 127.794C253.673 128.372 254.244 129.737 254.244 130.829C254.244 132.179 255.053 133.229 256.78 134.121C258.176 134.841 259.317 135.799 259.317 136.251C259.317 136.703 260.056 137.073 260.959 137.073C261.861 137.073 262.821 137.429 263.091 137.865C263.361 138.3 266.047 138.585 269.061 138.497C273.706 138.362 274.54 138.556 274.54 139.764C274.54 140.549 274.159 141.426 273.694 141.713C273.229 141.999 272.849 143.138 272.849 144.242C272.849 145.348 272.467 146.487 272.002 146.773C271.537 147.06 271.157 148.198 271.157 149.303C271.157 150.409 270.776 151.548 270.311 151.834C269.846 152.121 269.466 153.259 269.466 154.364C269.466 155.47 269.085 156.608 268.62 156.895C268.155 157.181 267.774 158.32 267.774 159.426C267.774 160.531 267.394 161.669 266.928 161.956C266.463 162.242 266.083 163.761 266.083 165.33C266.083 166.899 265.702 168.417 265.237 168.704C264.772 168.99 264.391 170.157 264.391 171.296C264.391 172.434 264.045 174.025 263.622 174.83C262.539 176.895 260.163 187.86 260.163 190.797C260.163 192.146 259.833 193.61 259.432 194.051C258.318 195.271 256.725 218.042 257.516 221.442C258.97 227.694 262.156 230.7 267.327 230.7C269.512 230.7 270.836 230.103 272.22 228.49C273.263 227.274 275.558 225.362 277.321 224.241C279.083 223.12 280.911 221.363 281.383 220.336C281.856 219.31 282.965 217.142 283.847 215.518C284.73 213.894 285.47 211.649 285.492 210.531C285.537 208.296 287.814 199.926 289.008 197.605C289.422 196.8 289.762 195.209 289.762 194.07C289.762 192.931 290.142 191.765 290.607 191.478C291.072 191.192 291.454 189.746 291.456 188.265C291.457 186.785 292.219 184.331 293.147 182.812C294.076 181.293 294.835 179.318 294.835 178.423C294.835 177.528 295.277 175.831 295.816 174.65L296.796 172.504L297.74 174.399C299.005 176.942 302.063 177.307 303.455 175.084C304.054 174.126 305.174 173.343 305.942 173.343C306.711 173.343 307.538 172.828 307.78 172.198C308.023 171.568 309.431 170.811 310.912 170.516C312.392 170.22 315.298 168.838 317.37 167.443C319.441 166.049 321.696 164.909 322.38 164.909C323.065 164.909 325.043 163.979 326.777 162.843C331.203 159.943 341.44 159.011 345.862 161.105C348.119 162.173 348.958 163.103 348.958 164.533C348.958 165.613 349.265 166.685 349.64 166.916C350.509 167.452 349.864 173.207 348.864 173.822C348.451 174.078 348.113 175.038 348.113 175.957C348.113 176.876 347.351 179.116 346.421 180.935C345.491 182.753 344.73 184.812 344.73 185.51C344.73 187.096 337.546 199.166 334.874 202.068C333.783 203.253 332.89 204.492 332.89 204.822C332.89 206.121 324.209 216.959 320.829 219.88C311.647 227.815 308.662 230.156 303.178 233.727C296.827 237.862 285.822 241.666 280.209 241.666C277.89 241.666 275.391 240.767 272.002 238.714C269.322 237.09 266.851 235.761 266.51 235.761C265.403 235.761 266.887 247.803 268.25 249.877C269.552 251.86 275.458 255.042 279.613 256.001C282.336 256.628 289.925 256.155 295.005 255.042ZM300.311 157.537C301.84 153.68 304.138 143.188 304.138 140.059C304.138 138.138 304.497 136.206 304.936 135.766C306.101 134.597 306.102 127.932 304.938 123.788C303.93 120.198 304.704 117.673 306.812 117.673C308.189 117.673 312.594 114.017 312.594 112.875C312.594 112.266 313.36 111.768 314.297 111.768C315.233 111.768 316.66 111.422 317.468 110.999C318.276 110.576 321.922 108.818 325.57 107.092C331.695 104.193 332.596 103.994 337.36 104.491C344.009 105.184 348.112 106.678 348.112 108.406C348.112 110.473 344.292 117.5 340.095 123.156C338.029 125.939 335.693 129.165 334.902 130.325C332.633 133.654 315.917 149.725 314.723 149.725C314.131 149.725 313.125 150.357 312.486 151.13C311.203 152.684 303.767 157.546 301.295 158.449C300.036 158.908 299.839 158.725 300.311 157.537ZM84.6448 249.208C85.0865 248.771 86.5268 248.414 87.8445 248.414C89.1621 248.414 92.0353 247.519 94.2289 246.426C96.4234 245.332 99.3164 244.173 100.66 243.85C102.883 243.315 104.843 241.725 113.483 233.442C115.056 231.934 116.7 230.7 117.137 230.7C117.573 230.7 118.878 229.087 120.037 227.116C121.195 225.144 123.42 222.113 124.98 220.381C129.522 215.336 131.965 212.004 133.148 209.244C134.152 206.902 134.085 206.533 132.42 205.188C129.386 202.737 127.735 203.441 122.585 209.381C119.881 212.501 116.491 216.202 115.051 217.605C104.609 227.788 98.4214 233.375 96.7665 234.117C95.704 234.592 93.3132 235.91 91.4527 237.044C89.5922 238.179 87.2901 239.114 86.3362 239.121C85.3832 239.128 84.1459 239.591 83.5882 240.147C82.7984 240.935 82.3476 240.935 81.5586 240.147C81.0001 239.591 79.6683 239.135 78.5985 239.135C77.338 239.135 76.6535 238.635 76.6535 237.713C76.6535 236.932 75.896 235.487 74.9695 234.505C73.5433 232.99 73.2234 231.193 72.877 222.737C72.6524 217.248 72.6831 212.411 72.9449 211.987C73.2076 211.563 73.5267 208.294 73.6543 204.722C73.8864 198.243 75.4419 190.23 77.3421 185.729C77.8941 184.424 78.3449 182.066 78.3449 180.489C78.3449 178.913 79.0509 175.806 79.9136 173.585C80.7763 171.364 82.3451 165.942 83.3984 161.534C84.4517 157.127 85.839 152.68 86.4804 151.653C87.1218 150.625 87.6497 149.107 87.6522 148.279C87.6557 147.451 88.268 145.635 89.0138 144.243C89.7605 142.851 91.6234 138.162 93.1549 133.823C94.6864 129.484 96.3571 125.518 96.8676 125.009C97.3772 124.5 97.7949 123.531 97.7949 122.856C97.7949 122.181 98.7463 120.384 99.909 118.863C101.072 117.343 102.024 115.693 102.024 115.199C102.024 113.892 108.583 107.551 109.934 107.551C110.564 107.551 112.059 108.457 113.255 109.563C115.336 111.487 115.431 111.972 115.393 120.5C115.354 129.342 115.379 129.459 118.253 133.459C120.31 136.321 121.829 137.574 123.479 137.767C126.223 138.088 128.239 136.666 128.239 134.41C128.239 133.522 128.767 131.955 129.411 130.928C131.232 128.027 132.893 117.76 131.729 116.599C131.205 116.076 130.768 113.921 130.757 111.81C130.745 109.306 130.164 107.24 129.085 105.864C128.175 104.704 127.411 103.186 127.385 102.49C127.311 100.443 125.23 98.2724 123.34 98.2724C122.327 98.2724 121.36 97.5568 121.047 96.5732C120.75 95.6384 120.175 95.0784 119.771 95.3274C118.84 95.9006 112.172 93.864 112.172 93.0061C112.172 91.6519 102.031 92.3848 98.4521 93.998C94.456 95.7989 92.0138 96.7246 90.3646 97.0646C89.7663 97.1878 87.7881 98.5544 85.9691 100.101C84.1509 101.647 81.5346 103.767 80.1556 104.812C78.7775 105.857 75.8413 109.462 73.6311 112.825C71.4209 116.187 69.2845 119.068 68.8826 119.226C68.4806 119.385 67.3867 120.904 66.4511 122.601C65.5163 124.297 63.8406 127.204 62.7268 129.06C59.4476 134.527 57.2034 139.005 57.2034 140.08C57.2034 140.632 56.6324 141.556 55.9347 142.134C55.2369 142.712 54.6659 144.04 54.6659 145.086C54.6659 146.133 54.1363 147.426 53.4899 147.962C52.8427 148.498 52.0455 150.727 51.719 152.916C51.3924 155.104 50.7336 157.369 50.2554 157.949C49.7773 158.529 48.8532 161.536 48.2027 164.631C47.5522 167.728 46.687 170.669 46.2801 171.169C45.1804 172.521 42.6238 185.677 42.3345 191.478C42.1953 194.262 41.8216 199.386 41.5042 202.865C40.7533 211.094 40.7542 212.153 41.5191 220.157C41.8738 223.868 42.6254 227.854 43.1906 229.013C43.7558 230.173 44.7478 232.83 45.3967 234.918C46.8726 239.668 55.1921 248.414 58.2352 248.414C59.3415 248.414 60.6086 248.764 61.0512 249.192C61.4929 249.621 62.9962 250.157 64.3909 250.384C68.2395 251.011 83.7315 250.111 84.6448 249.208Z" fill="black"/>
</svg>
